<?xml version="1.0" encoding="utf-8"?>
<!-- Generator: Adobe Illustrator 26.0.1, SVG Export Plug-In . SVG Version: 6.00 Build 0)  -->
<svg version="1.1" id="Layer_1" xmlns="http://www.w3.org/2000/svg" xmlns:xlink="http://www.w3.org/1999/xlink" x="0px" y="0px"
	 viewBox="0 0 39.4 64" style="enable-background:new 0 0 39.4 64;" xml:space="preserve">
<style type="text/css">
	.st0{opacity:0.1;}
</style>
<polygon points="39.6,0.7 39.1,1.4 38.7,0.7 38.2,1.4 37.8,0.7 37.3,1.4 36.9,0.7 36.4,1.4 35.9,0.7 35.4,1.4 34.9,0.7 34.5,1.4 
	34,0.7 33.6,1.4 33.1,0.7 32.7,1.4 32.2,0.7 31.8,1.4 31.3,0.7 30.8,1.4 30.4,0.7 29.9,1.4 29.5,0.7 29,1.4 28.5,0.7 28,1.4 
	27.6,0.7 27.1,1.4 26.7,0.7 26.2,1.4 25.7,0.7 25.3,1.4 24.8,0.7 24.4,1.4 23.9,0.7 23.5,1.4 23,0.7 22.6,1.4 22.1,0.7 21.6,1.4 
	21.2,0.7 20.6,1.4 20.2,0.7 19.7,1.4 19.3,0.7 18.8,1.4 18.4,0.7 17.9,1.4 17.5,0.7 17,1.4 16.5,0.7 16.1,1.4 15.6,0.7 15.2,1.4 
	14.7,0.7 14.3,1.4 13.8,0.7 13.3,1.4 12.8,0.7 12.3,1.4 11.9,0.7 11.4,1.4 11,0.7 10.5,1.4 10.1,0.7 9.6,1.4 9.2,0.7 8.7,1.4 
	8.2,0.7 7.8,1.4 7.3,0.7 6.9,1.4 6.4,0.7 5.9,1.4 5.4,0.7 5,1.4 4.5,0.7 4.1,1.4 3.6,0.7 3.1,1.4 2.7,0.7 2.2,1.4 1.8,0.7 1.3,1.4 
	0.9,0.7 0.4,1.4 0,0.7 -0.5,1.4 -0.5,64.2 39.4,64.2 39.4,1.4 39.6,1.4 40.1,1.4 "/>
<g class="st0">
	<polygon points="-1,1.4 -0.5,1.4 0,1.4 -0.5,0.7 	"/>
	<polygon points="0,1.4 0.4,1.4 0.9,1.4 0.4,0.7 	"/>
	<polygon points="0.9,1.4 1.3,1.4 1.8,1.4 1.3,0.7 	"/>
	<polygon points="1.8,1.4 2.2,1.4 2.7,1.4 2.2,0.7 	"/>
	<polygon points="2.7,1.4 3.1,1.4 3.6,1.4 3.1,0.7 	"/>
	<polygon points="3.6,1.4 4.1,1.4 4.5,1.4 4.1,0.7 	"/>
	<polygon points="4.5,1.4 5,1.4 5.4,1.4 5,0.7 	"/>
	<polygon points="5.4,1.4 5.9,1.4 6.4,1.4 5.9,0.7 	"/>
	<polygon points="6.4,1.4 6.9,1.4 7.3,1.4 6.9,0.7 	"/>
	<polygon points="7.3,1.4 7.8,1.4 8.2,1.4 7.8,0.7 	"/>
	<polygon points="8.2,1.4 8.7,1.4 9.2,1.4 8.7,0.7 	"/>
	<polygon points="9.2,1.4 9.6,1.4 10.1,1.4 9.6,0.7 	"/>
	<polygon points="10.1,1.4 10.5,1.4 11,1.4 10.5,0.7 	"/>
	<polygon points="11,1.4 11.4,1.4 11.9,1.4 11.4,0.7 	"/>
	<polygon points="11.9,1.4 12.3,1.4 12.8,1.4 12.3,0.7 	"/>
	<polygon points="12.8,1.4 13.3,1.4 13.8,1.4 13.3,0.7 	"/>
	<polygon points="13.8,1.4 14.3,1.4 14.7,1.4 14.3,0.7 	"/>
	<polygon points="14.7,1.4 15.2,1.4 15.6,1.4 15.2,0.7 	"/>
	<polygon points="15.6,1.4 16.1,1.4 16.5,1.4 16.1,0.7 	"/>
	<polygon points="16.5,1.4 17,1.4 17.5,1.4 17,0.7 	"/>
	<polygon points="17.5,1.4 17.9,1.4 18.4,1.4 17.9,0.7 	"/>
	<polygon points="18.4,1.4 18.8,1.4 19.3,1.4 18.8,0.7 	"/>
	<polygon points="19.3,1.4 19.7,1.4 20.2,1.4 19.7,0.7 	"/>
	<polygon points="20.2,1.4 20.6,1.4 21.2,1.4 20.6,0.7 	"/>
	<polygon points="21.2,1.4 21.6,1.4 22.1,1.4 21.6,0.7 	"/>
	<polygon points="22.1,1.4 22.6,1.4 23,1.4 22.6,0.7 	"/>
	<polygon points="23,1.4 23.5,1.4 23.9,1.4 23.5,0.7 	"/>
	<polygon points="23.9,1.4 24.4,1.4 24.8,1.4 24.4,0.7 	"/>
	<polygon points="24.8,1.4 25.3,1.4 25.7,1.4 25.3,0.7 	"/>
	<polygon points="25.7,1.4 26.2,1.4 26.7,1.4 26.2,0.7 	"/>
	<polygon points="26.7,1.4 27.1,1.4 27.6,1.4 27.1,0.7 	"/>
	<polygon points="27.6,1.4 28,1.4 28.5,1.4 28,0.7 	"/>
	<polygon points="28.5,1.4 29,1.4 29.5,1.4 29,0.7 	"/>
	<polygon points="29.5,1.4 29.9,1.4 30.4,1.4 29.9,0.7 	"/>
	<polygon points="30.4,1.4 30.8,1.4 31.3,1.4 30.8,0.7 	"/>
	<polygon points="31.3,1.4 31.8,1.4 32.2,1.4 31.8,0.7 	"/>
	<polygon points="32.2,1.4 32.7,1.4 33.1,1.4 32.7,0.7 	"/>
	<polygon points="33.1,1.4 33.6,1.4 34,1.4 33.6,0.7 	"/>
	<polygon points="34,1.4 34.5,1.4 34.9,1.4 34.5,0.7 	"/>
	<polygon points="34.9,1.4 35.4,1.4 35.9,1.4 35.4,0.7 	"/>
	<polygon points="35.9,1.4 36.4,1.4 36.9,1.4 36.4,0.7 	"/>
	<polygon points="36.9,1.4 37.3,1.4 37.8,1.4 37.3,0.7 	"/>
	<polygon points="37.8,1.4 38.2,1.4 38.7,1.4 38.2,0.7 	"/>
	<polygon points="39.1,0.7 38.7,1.4 39.1,1.4 39.6,1.4 	"/>
</g>
</svg>
